<?xml version="1.0" encoding="UTF-8" standalone="no"?>
<!-- Created with Inkscape (http://www.inkscape.org/) -->

<svg
   xmlns:dc="http://purl.org/dc/elements/1.1/"
   xmlns:cc="http://creativecommons.org/ns#"
   xmlns:rdf="http://www.w3.org/1999/02/22-rdf-syntax-ns#"
   xmlns:svg="http://www.w3.org/2000/svg"
   xmlns="http://www.w3.org/2000/svg"
   xmlns:sodipodi="http://sodipodi.sourceforge.net/DTD/sodipodi-0.dtd"
   xmlns:inkscape="http://www.inkscape.org/namespaces/inkscape"
   width="16"
   height="16"
   id="svg2868"
   version="1.1"
   inkscape:version="0.47 r22583"
   sodipodi:docname="viewIcons.svg"
   inkscape:export-filename="C:\dev\java.net\raven\trunk\proj\RavenEditor\art\icons\view\symbols.png"
   inkscape:export-xdpi="90"
   inkscape:export-ydpi="90"
   style="display:inline">
  <defs
     id="defs2870">
    <inkscape:perspective
       id="perspective4415"
       inkscape:persp3d-origin="0.5 : 0.33333333 : 1"
       inkscape:vp_z="1 : 0.5 : 1"
       inkscape:vp_y="0 : 1000 : 0"
       inkscape:vp_x="0 : 0.5 : 1"
       sodipodi:type="inkscape:persp3d" />
    <inkscape:perspective
       id="perspective4415-5"
       inkscape:persp3d-origin="0.5 : 0.33333333 : 1"
       inkscape:vp_z="1 : 0.5 : 1"
       inkscape:vp_y="0 : 1000 : 0"
       inkscape:vp_x="0 : 0.5 : 1"
       sodipodi:type="inkscape:persp3d" />
    <inkscape:perspective
       id="perspective4415-1"
       inkscape:persp3d-origin="0.5 : 0.33333333 : 1"
       inkscape:vp_z="1 : 0.5 : 1"
       inkscape:vp_y="0 : 1000 : 0"
       inkscape:vp_x="0 : 0.5 : 1"
       sodipodi:type="inkscape:persp3d" />
    <inkscape:perspective
       id="perspective4478"
       inkscape:persp3d-origin="0.5 : 0.33333333 : 1"
       inkscape:vp_z="1 : 0.5 : 1"
       inkscape:vp_y="0 : 1000 : 0"
       inkscape:vp_x="0 : 0.5 : 1"
       sodipodi:type="inkscape:persp3d" />
    <inkscape:perspective
       id="perspective2848"
       inkscape:persp3d-origin="0.5 : 0.33333333 : 1"
       inkscape:vp_z="1 : 0.5 : 1"
       inkscape:vp_y="0 : 1000 : 0"
       inkscape:vp_x="0 : 0.5 : 1"
       sodipodi:type="inkscape:persp3d" />
    <inkscape:perspective
       id="perspective3644"
       inkscape:persp3d-origin="0.5 : 0.33333333 : 1"
       inkscape:vp_z="1 : 0.5 : 1"
       inkscape:vp_y="0 : 1000 : 0"
       inkscape:vp_x="0 : 0.5 : 1"
       sodipodi:type="inkscape:persp3d" />
    <inkscape:perspective
       id="perspective3637"
       inkscape:persp3d-origin="0.5 : 0.33333333 : 1"
       inkscape:vp_z="1 : 0.5 : 1"
       inkscape:vp_y="0 : 1000 : 0"
       inkscape:vp_x="0 : 0.5 : 1"
       sodipodi:type="inkscape:persp3d" />
    <inkscape:perspective
       id="perspective3757"
       inkscape:persp3d-origin="0.5 : 0.33333333 : 1"
       inkscape:vp_z="1 : 0.5 : 1"
       inkscape:vp_y="0 : 1000 : 0"
       inkscape:vp_x="0 : 0.5 : 1"
       sodipodi:type="inkscape:persp3d" />
    <inkscape:perspective
       id="perspective4311"
       inkscape:persp3d-origin="0.5 : 0.33333333 : 1"
       inkscape:vp_z="1 : 0.5 : 1"
       inkscape:vp_y="0 : 1000 : 0"
       inkscape:vp_x="0 : 0.5 : 1"
       sodipodi:type="inkscape:persp3d" />
    <inkscape:perspective
       id="perspective4338"
       inkscape:persp3d-origin="0.5 : 0.33333333 : 1"
       inkscape:vp_z="1 : 0.5 : 1"
       inkscape:vp_y="0 : 1000 : 0"
       inkscape:vp_x="0 : 0.5 : 1"
       sodipodi:type="inkscape:persp3d" />
    <inkscape:perspective
       id="perspective4338-7"
       inkscape:persp3d-origin="0.5 : 0.33333333 : 1"
       inkscape:vp_z="1 : 0.5 : 1"
       inkscape:vp_y="0 : 1000 : 0"
       inkscape:vp_x="0 : 0.5 : 1"
       sodipodi:type="inkscape:persp3d" />
    <inkscape:perspective
       id="perspective4372"
       inkscape:persp3d-origin="0.5 : 0.33333333 : 1"
       inkscape:vp_z="1 : 0.5 : 1"
       inkscape:vp_y="0 : 1000 : 0"
       inkscape:vp_x="0 : 0.5 : 1"
       sodipodi:type="inkscape:persp3d" />
    <inkscape:perspective
       id="perspective2885"
       inkscape:persp3d-origin="0.5 : 0.33333333 : 1"
       inkscape:vp_z="1 : 0.5 : 1"
       inkscape:vp_y="0 : 1000 : 0"
       inkscape:vp_x="0 : 0.5 : 1"
       sodipodi:type="inkscape:persp3d" />
    <inkscape:perspective
       id="perspective2885-7"
       inkscape:persp3d-origin="0.5 : 0.33333333 : 1"
       inkscape:vp_z="1 : 0.5 : 1"
       inkscape:vp_y="0 : 1000 : 0"
       inkscape:vp_x="0 : 0.5 : 1"
       sodipodi:type="inkscape:persp3d" />
    <inkscape:perspective
       id="perspective3699"
       inkscape:persp3d-origin="0.5 : 0.33333333 : 1"
       inkscape:vp_z="1 : 0.5 : 1"
       inkscape:vp_y="0 : 1000 : 0"
       inkscape:vp_x="0 : 0.5 : 1"
       sodipodi:type="inkscape:persp3d" />
    <inkscape:perspective
       id="perspective3699-7"
       inkscape:persp3d-origin="0.5 : 0.33333333 : 1"
       inkscape:vp_z="1 : 0.5 : 1"
       inkscape:vp_y="0 : 1000 : 0"
       inkscape:vp_x="0 : 0.5 : 1"
       sodipodi:type="inkscape:persp3d" />
    <inkscape:perspective
       id="perspective3699-0"
       inkscape:persp3d-origin="0.5 : 0.33333333 : 1"
       inkscape:vp_z="1 : 0.5 : 1"
       inkscape:vp_y="0 : 1000 : 0"
       inkscape:vp_x="0 : 0.5 : 1"
       sodipodi:type="inkscape:persp3d" />
  </defs>
  <sodipodi:namedview
     id="base"
     pagecolor="#ffffff"
     bordercolor="#666666"
     borderopacity="1.0"
     inkscape:pageopacity="0.0"
     inkscape:pageshadow="2"
     inkscape:zoom="22.14284"
     inkscape:cx="6.032238"
     inkscape:cy="7.8083547"
     inkscape:document-units="px"
     inkscape:current-layer="layer11"
     showgrid="true"
     inkscape:snap-global="true"
     inkscape:window-width="1056"
     inkscape:window-height="828"
     inkscape:window-x="260"
     inkscape:window-y="33"
     inkscape:window-maximized="0"
     inkscape:snap-grids="false">
    <inkscape:grid
       type="xygrid"
       id="grid4014"
       empspacing="5"
       visible="true"
       enabled="true"
       snapvisiblegridlinesonly="true" />
  </sodipodi:namedview>
  <metadata
     id="metadata2873">
    <rdf:RDF>
      <cc:Work
         rdf:about="">
        <dc:format>image/svg+xml</dc:format>
        <dc:type
           rdf:resource="http://purl.org/dc/dcmitype/StillImage" />
        <dc:title></dc:title>
      </cc:Work>
    </rdf:RDF>
  </metadata>
  <g
     inkscape:groupmode="layer"
     id="layer17"
     inkscape:label="Default"
     style="display:none" />
  <g
     inkscape:groupmode="layer"
     id="layer18"
     inkscape:label="Outliner"
     style="display:none">
    <rect
       style="fill:none;stroke:#9d0e0e;stroke-width:1;stroke-linecap:round;stroke-linejoin:round;stroke-miterlimit:4;stroke-opacity:1;stroke-dasharray:1, 2;stroke-dashoffset:0"
       id="rect4456"
       width="12"
       height="12"
       x="2"
       y="2" />
  </g>
  <g
     inkscape:groupmode="layer"
     id="layer19"
     inkscape:label="Console"
     style="display:none">
    <rect
       style="fill:none;stroke:#000000;stroke-width:1;stroke-linecap:round;stroke-linejoin:round;stroke-miterlimit:4;stroke-opacity:1;stroke-dasharray:none;stroke-dashoffset:0"
       id="rect4459"
       width="14"
       height="11"
       x="1"
       y="3" />
    <rect
       style="fill:#000000;fill-opacity:1;stroke:#ffffff;stroke-width:1;stroke-linecap:round;stroke-linejoin:miter;stroke-miterlimit:4;stroke-opacity:1;stroke-dasharray:none;stroke-dashoffset:0"
       id="rect4461"
       width="12"
       height="9"
       x="2"
       y="4" />
    <text
       xml:space="preserve"
       style="font-size:40px;font-style:normal;font-weight:normal;line-height:100%;letter-spacing:0px;word-spacing:0px;fill:#000000;fill-opacity:1;stroke:none;font-family:Bitstream Vera Sans"
       x="3.3612907"
       y="11.083872"
       id="text4463"
       sodipodi:linespacing="100%"><tspan
         sodipodi:role="line"
         id="tspan4465"
         x="3.3612907"
         y="11.083872"
         style="font-size:8px;font-style:normal;font-variant:normal;font-weight:normal;font-stretch:normal;text-align:start;line-height:100%;writing-mode:lr-tb;text-anchor:start;fill:#ffffff;fill-opacity:1;font-family:Arial;-inkscape-font-specification:Arial">A</tspan></text>
  </g>
  <g
     inkscape:groupmode="layer"
     id="layer20"
     inkscape:label="History"
     style="display:none">
    <rect
       style="fill:#c0cffc;fill-opacity:1;stroke:#06247b;stroke-width:1;stroke-linecap:round;stroke-linejoin:round;stroke-miterlimit:4;stroke-opacity:1;stroke-dasharray:none;stroke-dashoffset:0"
       id="rect4468"
       width="5"
       height="5"
       x="1"
       y="1" />
    <rect
       style="fill:#c0cffc;fill-opacity:1;stroke:#06247b;stroke-width:1;stroke-linecap:round;stroke-linejoin:round;stroke-miterlimit:4;stroke-opacity:1;stroke-dasharray:none;stroke-dashoffset:0;display:inline"
       id="rect4468-1"
       width="5"
       height="5"
       x="1"
       y="9" />
    <path
       style="fill:#d495fa;fill-opacity:1;stroke:#3a065a;stroke-width:1px;stroke-linecap:butt;stroke-linejoin:miter;stroke-opacity:1"
       d="m 10,14 c 0,0 2.925409,-3.057781 3,-5 C 13.05721,7.5103861 11,5 11,5 L 9,7 9,2 14,2 12,4 c 0,0 3,1 3,4 0,3 -1.573833,4.686767 -5,6 z"
       id="path4492"
       sodipodi:nodetypes="caccccccc" />
  </g>
  <g
     inkscape:groupmode="layer"
     id="layer1"
     inkscape:label="Properties"
     style="display:none">
    <path
       sodipodi:type="arc"
       style="fill:#64bcbf;fill-opacity:1;stroke:#052a2b;stroke-width:1;stroke-linecap:round;stroke-linejoin:miter;stroke-miterlimit:4;stroke-opacity:1;stroke-dasharray:none;stroke-dashoffset:0"
       id="path2838"
       sodipodi:cx="3"
       sodipodi:cy="4"
       sodipodi:rx="2"
       sodipodi:ry="2"
       d="M 5,4 A 2,2 0 1 1 1,4 2,2 0 1 1 5,4 z"
       transform="translate(0,1)" />
    <path
       transform="translate(0,8)"
       sodipodi:type="arc"
       style="fill:#64bcbf;fill-opacity:1;stroke:#052a2b;stroke-width:1;stroke-linecap:round;stroke-linejoin:miter;stroke-miterlimit:4;stroke-opacity:1;stroke-dasharray:none;stroke-dashoffset:0;display:inline"
       id="path2838-1"
       sodipodi:cx="3"
       sodipodi:cy="4"
       sodipodi:rx="2"
       sodipodi:ry="2"
       d="M 5,4 A 2,2 0 1 1 1,4 2,2 0 1 1 5,4 z" />
    <path
       style="fill:none;stroke:#052a2b;stroke-width:1;stroke-linecap:round;stroke-linejoin:round;stroke-miterlimit:4;stroke-opacity:1;stroke-dasharray:none;stroke-dashoffset:0"
       d="m 7,4 2,2 2,-2 2,2 2,-2"
       id="path2862"
       sodipodi:nodetypes="ccccc" />
    <path
       style="fill:none;stroke:#052a2b;stroke-width:1;stroke-linecap:round;stroke-linejoin:round;stroke-miterlimit:4;stroke-opacity:1;stroke-dasharray:none;stroke-dashoffset:0;display:inline"
       d="m 7,11 2,2 2,-2 2,2 2,-2"
       id="path2862-7"
       sodipodi:nodetypes="ccccc" />
  </g>
  <g
     inkscape:groupmode="layer"
     id="layer2"
     inkscape:label="Display"
     style="display:none">
    <rect
       style="fill:#cce9ea;fill-opacity:1;stroke:#052a2b;stroke-width:1;stroke-linecap:round;stroke-linejoin:round;stroke-miterlimit:4;stroke-opacity:1;stroke-dasharray:none;stroke-dashoffset:0"
       id="rect2847"
       width="13.999995"
       height="13.999996"
       x="0.91904497"
       y="0.94679129" />
    <path
       sodipodi:type="arc"
       style="fill:#19d726;fill-opacity:1;stroke:#063309;stroke-width:1;stroke-linecap:round;stroke-linejoin:round;stroke-miterlimit:4;stroke-opacity:1;stroke-dasharray:none;stroke-dashoffset:0"
       id="path2849"
       sodipodi:cx="4.9451623"
       sodipodi:cy="4.9516077"
       sodipodi:rx="2.9451623"
       sodipodi:ry="2.9516077"
       d="m 7.8903246,4.9516077 a 2.9451623,2.9516077 0 1 1 -5.8903246,0 2.9451623,2.9516077 0 1 1 5.8903246,0 z"
       transform="translate(-0.08095385,-0.05320854)" />
    <rect
       style="fill:#cc0f30;fill-opacity:1;stroke:#240309;stroke-width:1;stroke-linecap:round;stroke-linejoin:round;stroke-miterlimit:4;stroke-opacity:1;stroke-dasharray:none;stroke-dashoffset:0"
       id="rect2853"
       width="8"
       height="3.9999995"
       x="2.919045"
       y="9.9467916" />
    <path
       sodipodi:type="star"
       style="fill:#dbe53e;fill-opacity:1;stroke:#3c3f09;stroke-width:1;stroke-linecap:round;stroke-linejoin:round;stroke-miterlimit:4;stroke-opacity:1;stroke-dasharray:none;stroke-dashoffset:0"
       id="path2851"
       sodipodi:sides="5"
       sodipodi:cx="10.025814"
       sodipodi:cy="6.3354764"
       sodipodi:r1="4.2778401"
       sodipodi:r2="1.8959018"
       sodipodi:arg1="1.1894552"
       sodipodi:arg2="1.8177738"
       inkscape:flatsided="false"
       inkscape:rounded="0"
       inkscape:randomized="0"
       d="M 11.617879,10.306024 9.5623148,8.1738485 6.7415743,9.0765867 8.1341891,6.4627507 6.4039774,4.0590285 9.3202248,4.5757641 11.071636,2.1874439 l 0.409725,2.9331962 2.812643,0.9276592 -2.663023,1.2960793 -0.0131,2.9616454 z"
       transform="translate(1.4376852,-0.17384854)" />
  </g>
  <g
     inkscape:groupmode="layer"
     id="layer3"
     inkscape:label="Profile"
     style="display:none">
    <path
       style="fill:#393939;fill-opacity:1;stroke:#000000;stroke-width:1px;stroke-linecap:butt;stroke-linejoin:miter;stroke-opacity:1;display:inline"
       d="M 4,5 C 3.8317805,2.1613186 5.2624698,1.7320858 7,2 8.5586551,2.490292 9.126154,3.54696 9,5 L 13,7 9,8 C 8.0404776,8.353572 7.5195474,8.92644 8,10 l 4,5 -9,0 C 2.996728,13.221132 2.6359706,11.323101 4,10 5.9333384,8.451093 4.5279558,6.48641 4,5 z"
       id="path3627"
       sodipodi:nodetypes="cccccccccc" />
  </g>
  <g
     inkscape:groupmode="layer"
     id="layer4"
     inkscape:label="Player"
     style="display:none">
    <rect
       style="fill:#308a40;fill-opacity:1;stroke:#083110;stroke-width:1;stroke-linecap:round;stroke-linejoin:round;stroke-miterlimit:4;stroke-opacity:1;stroke-dasharray:none;stroke-dashoffset:0"
       id="rect2886"
       width="14"
       height="14"
       x="1"
       y="1" />
    <path
       style="fill:#ffffff;fill-opacity:1;stroke:#000000;stroke-width:1px;stroke-linecap:round;stroke-linejoin:round;stroke-opacity:1"
       d="M 4,13 13,8 4,3 4,13 z"
       id="path2884" />
    <path
       style="fill:none;stroke:#565656;stroke-width:1px;stroke-linecap:round;stroke-linejoin:miter;stroke-opacity:1"
       d="M 4.7225812,11.729032 11.451613,8.0903227"
       id="path3660"
       sodipodi:nodetypes="cc" />
    <path
       style="fill:none;stroke:#0c511b;stroke-width:1px;stroke-linecap:round;stroke-linejoin:round;stroke-opacity:1"
       d="m 1.9870983,13.922579 11.8322677,0.09032 0.09032,-11.5612996"
       id="path3662" />
    <path
       style="fill:none;stroke:#80b58a;stroke-width:1px;stroke-linecap:round;stroke-linejoin:round;stroke-opacity:1"
       d="M 2.077421,13.109675 2.1677436,1.9096665 12.916139,2.0903118"
       id="path3664" />
  </g>
  <g
     inkscape:groupmode="layer"
     id="layer5"
     inkscape:label="Tools"
     style="display:none">
    <rect
       style="fill:#ae8c3c;fill-opacity:1;stroke:#5d4c21;stroke-width:1;stroke-linecap:round;stroke-linejoin:round;stroke-miterlimit:4;stroke-opacity:1;stroke-dasharray:none;stroke-dashoffset:0"
       id="rect3667"
       width="2.6193569"
       height="9.5742006"
       x="6.8645215"
       y="5.2516046" />
    <path
       style="fill:#7d7f85;fill-opacity:1;stroke:#0a0a0b;stroke-width:1;stroke-linecap:square;stroke-linejoin:miter;stroke-miterlimit:4;stroke-opacity:1;stroke-dasharray:none"
       d="m 9.3935557,5.8838628 -2.8000022,0.090323 c 0,0 -0.090323,-2.2580663 -1.6258077,-2.1677437 -1.5354851,0.090323 -2.8903249,1.8064531 -2.8903249,1.8064531 0,0 1.1741945,-3.4322608 2.9806475,-3.6129061 1.806453,-0.1806453 4.9677456,-3e-7 4.9677456,-3e-7 0,0 0.541936,0.9032264 1.535485,0.9032264 0.993549,0 1.445163,-0.8129038 1.445163,-0.8129038 l 0.993549,0 0,3.612906 -1.083872,0 c 0,0 -0.451613,-0.8129038 -1.264517,-0.8129038 -0.812904,0 -2.077421,0.7225812 -2.2580663,0.9935492 z"
       id="path3669"
       sodipodi:nodetypes="ccscscsccccsc" />
    <path
       style="fill:none;stroke:#e8e8e8;stroke-width:1px;stroke-linecap:round;stroke-linejoin:round;stroke-opacity:1"
       d="m 4.0645193,3.5354742 c 0,0 0.1806453,-0.7225812 0.9935491,-0.7225812 0.8129039,0 4.4258099,0 4.4258099,0"
       id="path3671" />
    <path
       style="fill:#e8e8e8;fill-opacity:1;stroke:#e8e8e8;stroke-width:1px;stroke-linecap:round;stroke-linejoin:miter;stroke-opacity:1"
       d="M 12.464526,3.3548289 13.367752,2.9032157"
       id="path3675" />
    <path
       style="fill:none;stroke:#ddbc6d;stroke-width:1px;stroke-linecap:round;stroke-linejoin:miter;stroke-opacity:1"
       d="m 7.4064573,6.8774123 0,7.2258117"
       id="path3677" />
  </g>
  <g
     inkscape:groupmode="layer"
     id="layer6"
     inkscape:label="Tool Settings"
     style="display:none">
    <rect
       style="fill:#ae8c3c;fill-opacity:1;stroke:#5d4c21;stroke-width:0.80429357;stroke-linecap:round;stroke-linejoin:round;stroke-miterlimit:4;stroke-opacity:1;stroke-dasharray:none;stroke-dashoffset:0;display:inline"
       id="rect3667-8"
       width="2.1067319"
       height="7.7004681"
       x="3.8427031"
       y="3.5984497" />
    <path
       style="fill:#7d7f85;fill-opacity:1;stroke:#0a0a0b;stroke-width:0.80429357;stroke-linecap:square;stroke-linejoin:miter;stroke-miterlimit:4;stroke-opacity:1;stroke-dasharray:none;display:inline"
       d="M 5.8767894,4.106971 3.6247657,4.179617 c 0,0 -0.072646,-1.8161482 -1.3076267,-1.7435022 -1.2349807,0.072646 -2.32466963,1.4529185 -2.32466963,1.4529185 0,0 0.94439707,-2.7605452 2.39731553,-2.90583701 1.4529185,-0.14529177 3.9955258,-2.2e-7 3.9955258,-2.2e-7 0,0 0.4358756,0.72645913 1.2349811,0.72645913 0.799105,0 1.1623353,-0.6538134 1.1623353,-0.6538134 l 0.799105,0 0,2.9058371 -0.8717513,0 c 0,0 -0.3632294,-0.6538133 -1.0170428,-0.6538133 -0.6538139,0 -1.6708568,0.5811673 -1.8161486,0.7991052 z"
       id="path3669-8"
       sodipodi:nodetypes="ccscscsccccsc" />
    <path
       style="fill:none;stroke:#e8e8e8;stroke-width:0.80429357px;stroke-linecap:round;stroke-linejoin:round;stroke-opacity:1;display:inline"
       d="m 1.5906797,2.2181772 c 0,0 0.1452919,-0.5811674 0.7991052,-0.5811674 0.6538133,0 3.5596504,0 3.5596504,0"
       id="path3671-0" />
    <path
       style="fill:#e8e8e8;fill-opacity:1;stroke:#e8e8e8;stroke-width:0.80429357px;stroke-linecap:round;stroke-linejoin:miter;stroke-opacity:1;display:inline"
       d="M 8.3467514,2.0728854 9.0732103,1.7096557"
       id="path3675-6" />
    <path
       style="fill:none;stroke:#ddbc6d;stroke-width:0.80429357px;stroke-linecap:round;stroke-linejoin:miter;stroke-opacity:1;display:inline"
       d="m 4.2785789,4.9060765 0,5.8116735"
       id="path3677-8" />
    <path
       sodipodi:type="arc"
       style="color:#000000;fill:#d22d2d;fill-opacity:1;fill-rule:nonzero;stroke:#250808;stroke-width:1;stroke-linecap:round;stroke-linejoin:round;stroke-miterlimit:4;stroke-opacity:1;stroke-dasharray:none;stroke-dashoffset:0;marker:none;visibility:visible;display:inline;overflow:visible;enable-background:accumulate"
       id="path4299"
       sodipodi:cx="9.3032331"
       sodipodi:cy="7.8709617"
       sodipodi:rx="1.3548398"
       sodipodi:ry="1.3548398"
       d="m 10.658073,7.8709617 a 1.3548398,1.3548398 0 1 1 -2.7096797,0 1.3548398,1.3548398 0 1 1 2.7096797,0 z"
       transform="translate(-0.5419359,0)" />
    <path
       style="color:#000000;fill:none;stroke:#250808;stroke-width:1;stroke-linecap:round;stroke-linejoin:round;stroke-miterlimit:4;stroke-opacity:1;stroke-dasharray:none;stroke-dashoffset:0;marker:none;visibility:visible;display:inline;overflow:visible;enable-background:accumulate"
       d="M 11.380654,7.870961 13.277429,8.50322 15.174205,7.780639"
       id="path4328"
       sodipodi:nodetypes="ccc" />
    <path
       sodipodi:type="arc"
       style="color:#000000;fill:#d22d2d;fill-opacity:1;fill-rule:nonzero;stroke:#250808;stroke-width:1;stroke-linecap:round;stroke-linejoin:round;stroke-miterlimit:4;stroke-opacity:1;stroke-dasharray:none;stroke-dashoffset:0;marker:none;visibility:visible;display:inline;overflow:visible;enable-background:accumulate"
       id="path4299-8"
       sodipodi:cx="9.3032331"
       sodipodi:cy="7.8709617"
       sodipodi:rx="1.3548398"
       sodipodi:ry="1.3548398"
       d="m 10.658073,7.8709617 a 1.3548398,1.3548398 0 1 1 -2.7096797,0 1.3548398,1.3548398 0 1 1 2.7096797,0 z"
       transform="translate(-0.54193594,5.4580641)" />
    <path
       style="color:#000000;fill:none;stroke:#250808;stroke-width:1;stroke-linecap:round;stroke-linejoin:round;stroke-miterlimit:4;stroke-opacity:1;stroke-dasharray:none;stroke-dashoffset:0;marker:none;visibility:visible;display:inline;overflow:visible;enable-background:accumulate"
       d="m 11.380654,13.329025 1.896775,0.632259 1.896776,-0.722581"
       id="path4328-2"
       sodipodi:nodetypes="ccc" />
  </g>
  <g
     inkscape:groupmode="layer"
     id="layer7"
     inkscape:label="Help"
     style="display:none">
    <path
       style="fill:#f2ff2a;fill-opacity:1;stroke:#000000;stroke-width:1px;stroke-linecap:butt;stroke-linejoin:miter;stroke-opacity:1"
       d="M 5.2129049,5.8838631 2.9096774,4.1806453 c 0,0 1.2563136,-2.246885 2.3483888,-2.7677534 1.7804206,-0.8491767 4.1855732,-1.08214165 5.9161328,-0.135484 1.066822,0.5835768 1.856145,1.9008046 1.896776,3.1161315 0.04139,1.2382073 -0.926712,2.3419523 -1.716131,3.2967763 C 10.829021,8.3263126 9.8548853,8.5289246 9.4129081,9.2258016 9.0876957,9.7385724 9,11 9,11 L 6,11 C 6,11 5.9159105,9.6872807 6.1419348,9.0903227 6.4364878,8.3123719 7.04681,7.6743388 7.6516165,7.1032189 8.3376726,6.4553749 9.6249151,6.3884143 10.000005,5.5225725 10.224307,5.0048038 10.146375,4.2313723 9.729037,3.8516035 9.0595159,3.2423538 7.8496346,3.3102861 7.019358,3.6709582 6.1459987,4.0503455 5.2129049,5.8838631 5.2129049,5.8838631 z"
       id="path3673"
       sodipodi:nodetypes="ccaaaaaccaaaaac" />
    <rect
       style="opacity:0.93999999;fill:#f2ff2a;fill-opacity:1;stroke:#000000;stroke-width:1;stroke-linecap:round;stroke-linejoin:miter;stroke-miterlimit:4;stroke-opacity:1;stroke-dasharray:none;stroke-dashoffset:0"
       id="rect3675"
       width="2.9161305"
       height="2.1354842"
       x="6"
       y="13" />
  </g>
  <g
     inkscape:groupmode="layer"
     id="layer8"
     inkscape:label="Color"
     style="display:none">
    <path
       style="fill:#ff0000;fill-opacity:1;stroke:none"
       d="M 7.7157575,6.5934239 C 6.6758504,5.8368909 5.3038581,5.5704881 3.9334965,5.8590145 L 3.7867222,5.8899175 3.7870633,5.4891107 C 3.7874999,4.9762173 3.8459873,4.6221487 4.0098613,4.1403445 4.7624932,1.927541 7.1859723,0.74861462 9.3953415,1.5205222 11.077805,2.1083398 12.23189,3.74823 12.23189,5.5510977 l 0,0.3380588 -0.124194,-0.026481 C 11.630158,5.7608541 11.292879,5.7344875 10.764147,5.7576449 9.8392611,5.7981533 9.175652,6.0096623 8.4003485,6.511046 8.1700321,6.6599904 7.9776659,6.780115 7.9728681,6.7779897 7.9680702,6.7758648 7.8523705,6.69281 7.7157575,6.5934239 z"
       id="path3654" />
    <path
       style="fill:#00ff00;fill-opacity:1;stroke:none"
       d="M 4.2806507,14.663217 C 1.720493,14.177549 0.17903934,11.589171 1.0054412,9.1635501 1.3480123,8.1580498 2.0212446,7.361568 3.0000729,6.8037586 L 3.3533597,6.6024294 3.4815726,6.9958013 C 3.7357428,7.775625 4.2755867,8.579618 4.8931747,9.0981092 5.2365895,9.3864206 5.8340856,9.7620679 6.0964661,9.8546218 l 0.164581,0.058056 -0.023951,0.3494342 c -0.028125,0.41034 0.048945,1.088409 0.1757787,1.546505 0.1717693,0.620395 0.5843835,1.373428 0.9990399,1.823277 L 7.5868579,13.821685 7.39163,13.965849 c -0.2956242,0.218299 -0.9619579,0.520303 -1.392003,0.630898 -0.4910775,0.126294 -1.2491112,0.155605 -1.7189764,0.06647 l 0,0 z"
       id="path3656" />
    <path
       style="fill:#0000ff;fill-opacity:1;stroke:none"
       d="M 10.493179,14.698013 C 9.9597777,14.624386 9.3664989,14.418001 8.8899519,14.140294 8.3700554,13.837325 8.3878039,13.873695 8.6237355,13.594776 9.3839135,12.696095 9.751728,11.690084 9.7528554,10.506518 L 9.7533779,9.9579417 10.055536,9.8167319 c 1.133544,-0.5297467 2.049089,-1.5712383 2.461151,-2.7997178 0.06076,-0.1811459 0.12113,-0.3400124 0.134155,-0.3530366 0.03021,-0.03021 0.445518,0.1789306 0.710081,0.3575819 0.8138,0.5495354 1.447838,1.4285386 1.716476,2.3796511 0.121196,0.4290913 0.166983,1.2913895 0.09351,1.7610715 -0.237447,1.517924 -1.366357,2.842716 -2.848697,3.342988 -0.539636,0.18212 -1.314458,0.263771 -1.829034,0.192743 z"
       id="path3658" />
    <path
       style="fill:#00ffff;fill-opacity:1;stroke:none"
       d="M 7.7695493,13.20081 C 7.2771282,12.609105 6.9584856,11.909608 6.8352581,11.149815 c -0.071452,-0.440559 -0.0909,-1.026627 -0.034018,-1.025135 0.018629,4.89e-4 0.1964518,0.03026 0.3951616,0.06617 0.4478387,0.08092 1.2459254,0.08395 1.6879821,0.0064 l 0.3331424,-0.05843 -0.02415,0.568289 C 9.1511582,11.70058 8.8163056,12.534468 8.1513249,13.30214 l -0.1517004,0.175127 -0.2300762,-0.276464 0,0 z"
       id="path3661" />
    <path
       style="fill:#ff00ff;fill-opacity:1;stroke:none"
       d="M 9.5727639,9.1592773 C 9.4646096,8.6759928 8.8236457,7.5419441 8.5130778,7.2843888 8.4033848,7.19342 8.4177416,7.1616546 8.636607,7.0110713 8.9549058,6.7920759 9.4310892,6.5694518 9.8644845,6.437017 10.223495,6.3273123 10.341148,6.3135644 10.944792,6.3107821 c 0.436373,-0.00201 0.76321,0.018909 0.918518,0.058794 0.240224,0.061691 0.240996,0.062461 0.2129,0.2122251 -0.03815,0.2033749 -0.26294,0.7410693 -0.436968,1.0452399 -0.220539,0.3854613 -0.645151,0.8870675 -0.969144,1.1448765 -0.260581,0.2073504 -0.9414186,0.6292933 -1.0154138,0.6292933 -0.015278,0 -0.052142,-0.1088699 -0.08192,-0.2419332 z"
       id="path3663" />
    <path
       style="fill:#ffff00;fill-opacity:1;stroke:none"
       d="M 5.9199608,9.145255 C 4.9956026,8.6231837 4.213896,7.6321377 3.9450768,6.6415012 L 3.8886082,6.4334067 4.1199235,6.3766462 c 0.3416678,-0.083839 1.1307888,-0.109698 1.518413,-0.049758 0.5956044,0.092101 1.4178606,0.4331415 1.8368396,0.76185 l 0.098129,0.076986 -0.2809944,0.3479759 C 6.9734158,7.9086114 6.6530892,8.4915304 6.4722328,9.0060489 6.4045678,9.1985491 6.3365988,9.3560481 6.3211906,9.3560468 6.3057824,9.3560454 6.125229,9.2611892 5.9199608,9.145255 l 0,0 z"
       id="path3665" />
    <path
       style="fill:#ffffff;fill-opacity:1;stroke:none"
       d="M 7.2471166,9.6471438 C 7.0762996,9.6132039 6.9261565,9.5750511 6.9134651,9.5623598 6.8689594,9.5178541 7.0056063,9.1038082 7.197669,8.70121 7.3814156,8.3160436 7.7298077,7.8051053 7.9310901,7.625603 8.021573,7.5449109 8.0272433,7.5486695 8.2717443,7.8514096 8.4084961,8.020735 8.6022465,8.3116936 8.7023007,8.497984 8.9124912,8.8893368 9.1391468,9.5322838 9.0849939,9.5835582 8.9504878,9.7109146 7.7730868,9.7516495 7.2471166,9.6471438 l 0,0 z"
       id="path3667" />
    <path
       style="fill:none;stroke:#000000;stroke-width:0.75;stroke-linecap:round;stroke-linejoin:round;stroke-miterlimit:4;stroke-opacity:1;stroke-dasharray:none;stroke-dashoffset:0"
       d="M 8,1 C 5.5147186,1 3.5,3.0147186 3.5,5.5 3.5,5.7580848 3.5205,6.0041587 3.5625,6.25 4.0165673,6.0959177 4.4938551,6 5,6 6.1528471,6 7.2037871,6.4433421 8,7.15625 8.7982038,6.4337937 9.8392122,6 11,6 11.506145,6 11.983433,6.0959177 12.4375,6.25 12.478745,6.0051602 12.5,5.7565688 12.5,5.5 12.5,3.0147186 10.485281,1 8,1 z m 4.4375,5.25 c -0.277945,1.6499479 -1.446035,3.0102251 -3,3.53125 C 9.4754721,10.016504 9.5,10.25403 9.5,10.5 9.5,11.832434 8.9202446,13.019787 8,13.84375 8.7962129,14.556658 9.8471529,15 11,15 c 2.485281,0 4.5,-2.014719 4.5,-4.5 0,-1.9791364 -1.286998,-3.6475049 -3.0625,-4.25 z M 8,13.84375 C 7.0797554,13.019787 6.5,11.832434 6.5,10.5 6.5,10.243431 6.5212551,9.9948398 6.5625,9.75 5.0185287,9.2260719 3.8425781,7.8894047 3.5625,6.25 1.7869984,6.8524951 0.5,8.5208636 0.5,10.5 0.5,12.985281 2.5147186,15 5,15 6.1528471,15 7.2037871,14.556658 8,13.84375 z M 6.5625,9.75 C 7.0165673,9.9040823 7.4938551,10 8,10 8.4997244,10 8.9883622,9.9318403 9.4375,9.78125 9.2697748,8.7421164 8.7503658,7.8281076 8,7.15625 7.2656525,7.8209098 6.7341751,8.7308952 6.5625,9.75 z"
       id="path2875" />
  </g>
  <g
     inkscape:groupmode="layer"
     id="layer9"
     inkscape:label="Text"
     style="display:none">
    <text
       xml:space="preserve"
       style="font-size:40px;font-style:normal;font-weight:normal;line-height:100%;letter-spacing:0px;word-spacing:0px;fill:#000000;fill-opacity:1;stroke:none;font-family:Bitstream Vera Sans"
       x="1"
       y="13"
       id="text2884"
       sodipodi:linespacing="100%"><tspan
         sodipodi:role="line"
         id="tspan2886"
         x="1"
         y="13"
         style="font-size:16px;font-style:normal;font-variant:normal;font-weight:normal;font-stretch:normal;text-align:start;line-height:100%;writing-mode:lr-tb;text-anchor:start;font-family:Times New Roman;-inkscape-font-specification:Times New Roman"
         dx="0 -2.9354854">Tx</tspan></text>
  </g>
  <g
     inkscape:groupmode="layer"
     id="layer10"
     inkscape:label="Camera Display"
     style="display:none">
    <rect
       style="fill:#9f9f9f;fill-opacity:1;stroke:#000000;stroke-width:1;stroke-linecap:round;stroke-linejoin:round;stroke-miterlimit:4;stroke-opacity:1;stroke-dasharray:none;stroke-dashoffset:0"
       id="rect3665"
       width="10"
       height="5"
       x="2.0000005"
       y="9" />
    <path
       sodipodi:type="arc"
       style="fill:#d5dfe4;fill-opacity:1;stroke:#000000;stroke-width:1;stroke-linecap:round;stroke-linejoin:round;stroke-miterlimit:4;stroke-opacity:1;stroke-dasharray:none;stroke-dashoffset:0"
       id="path3668"
       sodipodi:cx="4"
       sodipodi:cy="2"
       sodipodi:rx="2"
       sodipodi:ry="2"
       d="M 6,2 A 2,2 0 1 1 2,2 2,2 0 1 1 6,2 z"
       transform="translate(-0.99999952,4.0000002)" />
    <path
       sodipodi:type="arc"
       style="fill:#d5dfe4;fill-opacity:1;stroke:#000000;stroke-width:1;stroke-linecap:round;stroke-linejoin:round;stroke-miterlimit:4;stroke-opacity:1;stroke-dasharray:none;stroke-dashoffset:0"
       id="path3670"
       sodipodi:cx="10.5"
       sodipodi:cy="0.5"
       sodipodi:rx="3.5"
       sodipodi:ry="3.5"
       d="m 14,0.5 a 3.5,3.5 0 1 1 -7,0 3.5,3.5 0 1 1 7,0 z"
       transform="translate(-0.99999952,4.0000002)" />
    <path
       style="fill:#9f9f9f;fill-opacity:1;stroke:#000000;stroke-width:1;stroke-linecap:round;stroke-linejoin:round;stroke-miterlimit:4;stroke-opacity:1;stroke-dashoffset:0"
       d="M 11.91614,10.154831 15,9 l 0,5 -3.08386,-1 0,-2.845169 z"
       id="rect3672"
       sodipodi:nodetypes="ccccc" />
  </g>
  <g
     inkscape:groupmode="layer"
     id="layer11"
     inkscape:label="Symbols"
     style="display:inline">
    <path
       style="fill:#ffffff;fill-opacity:1;stroke:#000000;stroke-width:1px;stroke-linecap:butt;stroke-linejoin:round;stroke-opacity:1"
       d="M 5.5390847,2.5267802 6.6327574,0.55550895 8.8721827,0.50966577 10.174174,2.5267806 8.9242624,4.4063649 l -1.0415931,0.045843 -0.05208,1.1002444 1.0936727,1.054401 -0.05208,2.567237 -0.6249558,1.1002457 2.8643808,1.191931 1.093674,2.750611 1.458231,-0.550122 0.833274,0.962713 -1.197832,1.008557 -1.979027,0.04584 -1.4061504,-3.117359 -2.5519041,-1.146089 -0.4166378,2.521395 -2.2394251,0.09168 -0.1041586,1.558679 -1.4582303,0 -0.05208,-2.933975 L 5.2786864,12.520669 5.5911643,9.6783687 6.6327574,8.0280024 6.5285982,6.9277579 5.1745271,6.9736015 4.0287746,8.25722 4.0287747,9.4491512 2.2267415,9.4498338 2.2580663,8.2113765 4.4974916,5.4149218 6.4903551,5.2780736 6.4244389,4.2229904 5.5390847,2.5267802 z"
       id="path3731"
       sodipodi:nodetypes="cccccccccccccccccccccccccccccccccccc" />
  </g>
  <g
     inkscape:groupmode="layer"
     id="layer12"
     inkscape:label="Anim Curves"
     style="display:none">
    <path
       style="fill:none;stroke:#0d4eec;stroke-width:1px;stroke-linecap:round;stroke-linejoin:miter;stroke-opacity:1"
       d="M 1.0838718,10.941932 C 1.0838718,10.941932 2,6 5,6 c 3,0 3,3 6,3 3,0 3,-3 4,-7"
       id="path3672"
       sodipodi:nodetypes="cssc" />
    <path
       style="fill:none;stroke:#00d60c;stroke-width:1px;stroke-linecap:round;stroke-linejoin:miter;stroke-opacity:1"
       d="m 1,13 c 0,0 2,-2 4,-2 2,0 2,2 5,2 3,0 5,-2 5,-2"
       id="path3674" />
    <path
       style="fill:none;stroke:#ff0909;stroke-width:1px;stroke-linecap:round;stroke-linejoin:miter;stroke-opacity:1"
       d="m 1,1 0,14 14,0"
       id="path2893" />
    <rect
       style="fill:#ffffff;fill-opacity:1;stroke:#000000;stroke-width:1;stroke-linecap:round;stroke-linejoin:round;stroke-miterlimit:4;stroke-opacity:1;stroke-dasharray:none;stroke-dashoffset:0"
       id="rect3676"
       width="1"
       height="1"
       x="4.6838708"
       y="5.4064517" />
    <rect
       style="fill:#ffffff;fill-opacity:1;stroke:#000000;stroke-width:1;stroke-linecap:round;stroke-linejoin:round;stroke-miterlimit:4;stroke-opacity:1;stroke-dasharray:none;stroke-dashoffset:0;display:inline"
       id="rect3676-1"
       width="1"
       height="1"
       x="10.451613"
       y="8.3161297" />
    <rect
       style="fill:#ffffff;fill-opacity:1;stroke:#000000;stroke-width:1;stroke-linecap:round;stroke-linejoin:round;stroke-miterlimit:4;stroke-opacity:1;stroke-dasharray:none;stroke-dashoffset:0;display:inline"
       id="rect3676-4"
       width="1"
       height="1"
       x="4.5483866"
       y="10.361291" />
    <rect
       style="fill:#ffffff;fill-opacity:1;stroke:#000000;stroke-width:1;stroke-linecap:round;stroke-linejoin:round;stroke-miterlimit:4;stroke-opacity:1;stroke-dasharray:none;stroke-dashoffset:0;display:inline"
       id="rect3676-9"
       width="1"
       height="1"
       x="9.7290325"
       y="12.503225" />
  </g>
</svg>
