<?xml version="1.0" encoding="UTF-8" standalone="no"?>
<!-- Created with Inkscape (http://www.inkscape.org/) -->

<svg
   xmlns:dc="http://purl.org/dc/elements/1.1/"
   xmlns:cc="http://creativecommons.org/ns#"
   xmlns:rdf="http://www.w3.org/1999/02/22-rdf-syntax-ns#"
   xmlns:svg="http://www.w3.org/2000/svg"
   xmlns="http://www.w3.org/2000/svg"
   xmlns:xlink="http://www.w3.org/1999/xlink"
   xmlns:sodipodi="http://sodipodi.sourceforge.net/DTD/sodipodi-0.dtd"
   xmlns:inkscape="http://www.inkscape.org/namespaces/inkscape"
   width="24"
   height="24"
   id="svg2868"
   version="1.1"
   inkscape:version="0.47 r22583"
   sodipodi:docname="toolIcons.svg"
   inkscape:export-filename="C:\dev\java.net\raven\trunk\proj\RavenEditor\art\icons\tools\colorSampler.png"
   inkscape:export-xdpi="90"
   inkscape:export-ydpi="90"
   style="display:inline">
  <defs
     id="defs2870">
    <linearGradient
       id="linearGradient3695">
      <stop
         id="stop3697"
         offset="0"
         style="stop-color:#566ba5;stop-opacity:1;" />
      <stop
         style="stop-color:#566ca6;stop-opacity:1;"
         offset="0.37202382"
         id="stop3703" />
      <stop
         style="stop-color:#ebeaf4;stop-opacity:1;"
         offset="0.5"
         id="stop3701" />
      <stop
         id="stop3699"
         offset="1"
         style="stop-color:#ebeaf4;stop-opacity:1;" />
    </linearGradient>
    <linearGradient
       id="linearGradient3676">
      <stop
         style="stop-color:#717171;stop-opacity:1;"
         offset="0"
         id="stop3678" />
      <stop
         style="stop-color:#bfbfbf;stop-opacity:1;"
         offset="1"
         id="stop3680" />
    </linearGradient>
    <linearGradient
       id="linearGradient3653">
      <stop
         style="stop-color:#989aff;stop-opacity:1;"
         offset="0"
         id="stop3655" />
      <stop
         id="stop3677"
         offset="0.19095275"
         style="stop-color:#9fa4ff;stop-opacity:1;" />
      <stop
         id="stop3665"
         offset="0.35049734"
         style="stop-color:#a1fbff;stop-opacity:1;" />
      <stop
         id="stop3661"
         offset="0.42607108"
         style="stop-color:#a6ffae;stop-opacity:1;" />
      <stop
         style="stop-color:#fdff9a;stop-opacity:1;"
         offset="0.59875315"
         id="stop3663" />
      <stop
         id="stop3679"
         offset="0.85859364"
         style="stop-color:#ffcb9a;stop-opacity:1;" />
      <stop
         style="stop-color:#ff9c9c;stop-opacity:1;"
         offset="0.9375"
         id="stop3681" />
      <stop
         style="stop-color:#ffa1a1;stop-opacity:1;"
         offset="1"
         id="stop3657" />
    </linearGradient>
    <inkscape:perspective
       sodipodi:type="inkscape:persp3d"
       inkscape:vp_x="0 : 12 : 1"
       inkscape:vp_y="0 : 1000 : 0"
       inkscape:vp_z="24 : 12 : 1"
       inkscape:persp3d-origin="12 : 8 : 1"
       id="perspective30" />
    <linearGradient
       id="linearGradient3635">
      <stop
         style="stop-color:#1c8d96;stop-opacity:0.86473429;"
         offset="0"
         id="stop3637" />
      <stop
         style="stop-color:#22aeb9;stop-opacity:0.10144927;"
         offset="1"
         id="stop3639" />
    </linearGradient>
    <radialGradient
       inkscape:collect="always"
       xlink:href="#linearGradient3635"
       id="radialGradient3641"
       cx="5.2384028"
       cy="6.1699104"
       fx="5.2384028"
       fy="6.1699104"
       r="4.3802986"
       gradientUnits="userSpaceOnUse"
       gradientTransform="matrix(1.4208491,-0.00463866,0.00437316,1.3395228,-2.2315593,-2.0705261)" />
    <filter
       inkscape:collect="always"
       id="filter3685"
       color-interpolation-filters="sRGB">
      <feGaussianBlur
         inkscape:collect="always"
         stdDeviation="0.035554884"
         id="feGaussianBlur3687" />
    </filter>
    <inkscape:perspective
       id="perspective2847"
       inkscape:persp3d-origin="0.5 : 0.33333333 : 1"
       inkscape:vp_z="1 : 0.5 : 1"
       inkscape:vp_y="0 : 1000 : 0"
       inkscape:vp_x="0 : 0.5 : 1"
       sodipodi:type="inkscape:persp3d" />
    <inkscape:perspective
       id="perspective3681"
       inkscape:persp3d-origin="0.5 : 0.33333333 : 1"
       inkscape:vp_z="1 : 0.5 : 1"
       inkscape:vp_y="0 : 1000 : 0"
       inkscape:vp_x="0 : 0.5 : 1"
       sodipodi:type="inkscape:persp3d" />
    <inkscape:perspective
       id="perspective3635"
       inkscape:persp3d-origin="0.5 : 0.33333333 : 1"
       inkscape:vp_z="1 : 0.5 : 1"
       inkscape:vp_y="0 : 1000 : 0"
       inkscape:vp_x="0 : 0.5 : 1"
       sodipodi:type="inkscape:persp3d" />
    <linearGradient
       inkscape:collect="always"
       xlink:href="#linearGradient3653"
       id="linearGradient3675"
       x1="23"
       y1="23"
       x2="1"
       y2="1"
       gradientUnits="userSpaceOnUse" />
    <linearGradient
       inkscape:collect="always"
       xlink:href="#linearGradient3676"
       id="linearGradient3682"
       x1="7.7907848"
       y1="-3.4029703"
       x2="20.790785"
       y2="-3.4029703"
       gradientUnits="userSpaceOnUse" />
    <inkscape:perspective
       id="perspective2912"
       inkscape:persp3d-origin="0.5 : 0.33333333 : 1"
       inkscape:vp_z="1 : 0.5 : 1"
       inkscape:vp_y="0 : 1000 : 0"
       inkscape:vp_x="0 : 0.5 : 1"
       sodipodi:type="inkscape:persp3d" />
    <inkscape:perspective
       id="perspective2912-7"
       inkscape:persp3d-origin="0.5 : 0.33333333 : 1"
       inkscape:vp_z="1 : 0.5 : 1"
       inkscape:vp_y="0 : 1000 : 0"
       inkscape:vp_x="0 : 0.5 : 1"
       sodipodi:type="inkscape:persp3d" />
    <linearGradient
       inkscape:collect="always"
       xlink:href="#linearGradient3695"
       id="linearGradient3693"
       x1="12.080145"
       y1="24.415922"
       x2="17.5"
       y2="8.3977842"
       gradientUnits="userSpaceOnUse" />
  </defs>
  <sodipodi:namedview
     id="base"
     pagecolor="#ffffff"
     bordercolor="#666666"
     borderopacity="1.0"
     inkscape:pageopacity="0.0"
     inkscape:pageshadow="2"
     inkscape:zoom="21.077215"
     inkscape:cx="6.0606396"
     inkscape:cy="11.710874"
     inkscape:document-units="px"
     inkscape:current-layer="layer12"
     showgrid="true"
     inkscape:snap-global="true"
     inkscape:window-width="1117"
     inkscape:window-height="828"
     inkscape:window-x="104"
     inkscape:window-y="36"
     inkscape:window-maximized="0"
     showguides="true"
     inkscape:guide-bbox="true"
     inkscape:snap-grids="false">
    <inkscape:grid
       type="xygrid"
       id="grid4014"
       empspacing="5"
       visible="true"
       enabled="true"
       snapvisiblegridlinesonly="true" />
  </sodipodi:namedview>
  <metadata
     id="metadata2873">
    <rdf:RDF>
      <cc:Work
         rdf:about="">
        <dc:format>image/svg+xml</dc:format>
        <dc:type
           rdf:resource="http://purl.org/dc/dcmitype/StillImage" />
        <dc:title></dc:title>
      </cc:Work>
    </rdf:RDF>
  </metadata>
  <g
     inkscape:groupmode="layer"
     id="layer17"
     inkscape:label="Default"
     style="display:none"
     transform="translate(0,8)">
    <path
       style="fill:#ffffff;fill-opacity:1;stroke:#000000;stroke-width:1px;stroke-linecap:round;stroke-linejoin:round;stroke-opacity:1"
       d="M 7.7695175,1.2721773 C 7.1398792,0.79442091 6.0940945,-0.2477621 5.4644561,-0.7255185 c 1.909491,-3.0045685 4.9588069,-6.198475 7.7314709,-5.9454744 4.458441,0.052949 6.252933,1.9964641 6.488283,5.2199597 0.212966,2.9169398 -4.082998,5.8679913 -5.23084,6.8796893 -1.562636,1.3772925 -1.255693,3.2807295 -1.400994,4.1406909 l -2.906022,0 c 0,0 -0.3405276,-2.7409749 2.669189,-6.2091868 1.571255,-1.8106177 3.576929,-2.323075 3.661288,-4.26625526 0.08513,-1.96100724 -1.558036,-3.28976624 -3.332923,-2.87714514 -1.571224,0.3652745 -3.9591425,2.4084341 -5.3743905,5.0554175 z"
       id="path2854"
       sodipodi:nodetypes="cccssccsssc" />
    <rect
       style="fill:#ffffff;fill-opacity:1;stroke:#000000;stroke-width:1;stroke-linecap:round;stroke-linejoin:round;stroke-miterlimit:4;stroke-opacity:1;stroke-dasharray:none;stroke-dashoffset:0"
       id="rect2856"
       width="3.2771533"
       height="2.9760678"
       x="10.056072"
       y="12.046608" />
  </g>
  <g
     inkscape:groupmode="layer"
     id="layer1"
     inkscape:label="Zoom"
     style="display:none"
     transform="translate(0,8)">
    <path
       sodipodi:type="arc"
       style="fill:none;stroke:#191104;stroke-width:0.66827416;stroke-linecap:round;stroke-linejoin:round;stroke-miterlimit:4;stroke-opacity:1;stroke-dasharray:none;stroke-dashoffset:0;display:inline"
       id="path3631-9"
       sodipodi:cx="6.1114697"
       sodipodi:cy="6.5902762"
       sodipodi:rx="3.8802984"
       sodipodi:ry="3.8802984"
       d="m 9.9917681,6.5902762 c 0,2.1430297 -1.7372687,3.8802988 -3.8802984,3.8802988 -2.1430296,0 -3.8802983,-1.7372691 -3.8802983,-3.8802988 0,-2.1430296 1.7372687,-3.8802983 3.8802983,-3.8802983 2.1430297,0 3.8802984,1.7372687 3.8802984,3.8802983 z"
       transform="matrix(1.7391917,0,0,1.7387541,-1.5181237,-9.879894)" />
    <rect
       style="fill:#939460;fill-opacity:1;stroke:#1c1c06;stroke-width:0.65572727;stroke-linecap:round;stroke-linejoin:round;stroke-miterlimit:4;stroke-opacity:1;stroke-dasharray:none;stroke-dashoffset:0;filter:url(#filter3685)"
       id="rect3633"
       width="2.2958431"
       height="7.7605968"
       x="-1.1320831"
       y="13.001007"
       transform="matrix(1.0784907,-1.0782197,1.0784907,1.0782197,-0.8633744,-8.6128528)" />
    <path
       sodipodi:type="arc"
       style="fill:url(#radialGradient3641);fill-opacity:1;stroke:#876518;stroke-width:0.66827416;stroke-linecap:round;stroke-linejoin:round;stroke-miterlimit:4;stroke-opacity:1;stroke-dasharray:none;stroke-dashoffset:0"
       id="path3631"
       sodipodi:cx="6.1114697"
       sodipodi:cy="6.5902762"
       sodipodi:rx="3.8802984"
       sodipodi:ry="3.8802984"
       d="m 9.9917681,6.5902762 c 0,2.1430297 -1.7372687,3.8802988 -3.8802984,3.8802988 -2.1430296,0 -3.8802983,-1.7372691 -3.8802983,-3.8802988 0,-2.1430296 1.7372687,-3.8802983 3.8802983,-3.8802983 2.1430297,0 3.8802984,1.7372687 3.8802984,3.8802983 z"
       transform="matrix(1.7391917,0,0,1.7387541,-2.2665266,-10.683099)"
       inkscape:export-xdpi="90"
       inkscape:export-ydpi="90" />
  </g>
  <g
     inkscape:groupmode="layer"
     id="layer2"
     inkscape:label="Pan"
     transform="translate(0,8)"
     style="display:none">
    <path
       style="fill:#ffffff;fill-opacity:1;stroke:#000000;stroke-width:1px;stroke-linecap:butt;stroke-linejoin:miter;stroke-opacity:1"
       d="m 7.7327527,13.779852 c 2.8181373,0.01788 5.6362743,0.03577 8.4544113,0.05365 1.222306,-0.444769 2.008674,-1.718922 2.800187,-2.735897 C 19.382249,9.792245 19.45405,8.8623988 19.956647,7.5570352 20.351545,6.7344718 20.531044,5.9119147 21.033642,4.8747775 20.741214,3.801186 20.038667,3.361066 18.987351,3.7482319 c -0.682096,0.9656104 -1.525743,1.7166409 -2.423239,2.6822513 -0.394899,0.5722136 -0.789796,1.1444277 -1.184694,1.7166407 0.520548,-1.8954575 1.041095,-3.7909152 1.561643,-5.6863727 0.771846,-2.50343475 1.112896,-2.43190793 1.723192,-5.0426327 0.497352,-1.496689 -2.098907,-2.2851466 -2.907888,-0.9656106 -1.274444,2.3424997 -2.01039,3.34387356 -2.746337,6.0618883 -0.197449,-2.93259488 -0.179499,-4.8995792 -0.376948,-7.8321741 0.0085,-1.3894324 -3.4280789,-1.4863905 -3.6617829,0.160935 -0.0359,2.9862399 -0.2871988,5.00686936 -0.3230986,7.9931092 C 7.7507027,0.51164856 7.014756,-0.52548884 6.1172602,-2.8501066 5.430805,-4.0214018 2.5282497,-3.5933268 3.101674,-1.5626259 c 0.6102972,2.34249961 1.0051955,3.3438733 1.6154926,5.686373 0.4307986,2.7895417 0.4307981,4.1306674 0.7538964,6.6519849 0.3138396,1.046279 0.9462237,2.670567 2.2616897,3.00412 z"
       id="path3690"
       sodipodi:nodetypes="cccccccccccccccccccc" />
    <path
       style="fill:none;stroke:#7d7d7d;stroke-width:1px;stroke-linecap:round;stroke-linejoin:miter;stroke-opacity:1"
       d="m 8.4133693,12.907886 c 0,0 7.4959417,0.05516 7.9267387,-0.05213 0.430798,-0.107288 2.053175,-2.499513 2.053175,-2.499513 l 0.745291,-2.9601502"
       id="path3692"
       sodipodi:nodetypes="cscc" />
    <path
       style="fill:none;stroke:#7d7d7d;stroke-width:1px;stroke-linecap:round;stroke-linejoin:miter;stroke-opacity:1"
       d="m 14.780186,6.4122882 2.736012,-8.1728155"
       id="path3694"
       sodipodi:nodetypes="cc" />
    <path
       style="fill:none;stroke:#7d7d7d;stroke-width:1px;stroke-linecap:round;stroke-linejoin:miter;stroke-opacity:1"
       d="M 12.032128,2.5710736 11.712471,-4.9119377"
       id="path3696"
       sodipodi:nodetypes="cc" />
    <path
       style="fill:none;stroke:#7d7d7d;stroke-width:1px;stroke-linecap:round;stroke-linejoin:miter;stroke-opacity:1"
       d="M 7.8318473,3.0614602 5.3370495,-2.1902638"
       id="path3698"
       sodipodi:nodetypes="cc" />
  </g>
  <g
     inkscape:groupmode="layer"
     id="layer3"
     inkscape:label="Select"
     style="display:none">
    <path
       style="opacity:0.93999999;fill:#ffffff;fill-opacity:1;stroke:#000000;stroke-width:1px;stroke-linecap:butt;stroke-linejoin:miter;stroke-opacity:1"
       d="M 3.9699791,1.5108776 7.2749076,20.006213 12.169774,16.536302 16.796323,23.06279 20.059567,20.749515 15.433018,14.223027 20.327884,10.753116 3.9699791,1.5108776 z"
       id="path2843"
       sodipodi:nodetypes="cccccccc" />
    <path
       style="fill:none;stroke:#8e8e8e;stroke-width:1px;stroke-linecap:round;stroke-linejoin:miter;stroke-opacity:1"
       d="M 5.7065419,3.5098848 18.500688,10.822618 14.854699,13.407216"
       id="path3619"
       sodipodi:nodetypes="ccc" />
    <path
       id="path3633"
       style="fill:none;stroke:#8e8e8e;stroke-width:1px;stroke-linecap:round;stroke-linejoin:miter;stroke-opacity:1"
       d="m 14.806079,14.888934 4.037011,5.60471 -1.758688,1.214769"
       sodipodi:nodetypes="ccc" />
  </g>
  <g
     inkscape:groupmode="layer"
     id="layer4"
     inkscape:label="Subselect"
     style="display:none">
    <path
       style="opacity:0.93999999;fill:#2d2d2d;fill-opacity:1;stroke:#000000;stroke-width:1px;stroke-linecap:butt;stroke-linejoin:miter;stroke-opacity:1;display:inline"
       d="m 3.9699791,1.510878 3.3049285,18.495335 4.8948664,-3.469911 4.626549,6.526488 3.263244,-2.313275 -4.626549,-6.526488 4.894866,-3.469911 L 3.9699791,1.510878 z"
       id="path2843-1"
       sodipodi:nodetypes="cccccccc" />
    <path
       style="fill:none;stroke:#8e8e8e;stroke-width:1px;stroke-linecap:round;stroke-linejoin:miter;stroke-opacity:1;display:inline"
       d="M 5.445898,4.1354305 7.9706755,18.277033 11.518457,15.700882"
       id="path3619-7"
       sodipodi:nodetypes="ccc" />
    <path
       id="path3633-4"
       style="fill:none;stroke:#8e8e8e;stroke-width:1px;stroke-linecap:round;stroke-linejoin:miter;stroke-opacity:1;display:inline"
       d="m 13.190087,16.087896 3.984882,5.60471 1.369039,-1.078897"
       sodipodi:nodetypes="ccc" />
  </g>
  <g
     inkscape:groupmode="layer"
     id="layer5"
     inkscape:label="Tumble"
     style="display:none">
    <path
       style="opacity:0.93999999;fill:#ffffff;fill-opacity:1;stroke:#000000;stroke-width:1;stroke-linecap:round;stroke-linejoin:miter;stroke-miterlimit:4;stroke-opacity:1;stroke-dasharray:none;stroke-dashoffset:0"
       d="m 12,0 -5,5 5,5 0,-3 c 3.313708,0 6,2.686291 6,6 0,3.313708 -2.686292,6 -6,6 C 8.6862915,19 6,16.313708 6,13 L 2,13 C 2,18.522847 6.4771525,23 12,23 17.522847,23 22,18.522847 22,13 22,7.4771525 17.522847,3 12,3 l 0,-3 z"
       id="path3662"
       sodipodi:nodetypes="ccccssccsscc" />
    <path
       style="fill:none;stroke:#8d8d8d;stroke-width:1px;stroke-linecap:round;stroke-linejoin:miter;stroke-opacity:1"
       d="m 15.430118,4.6602245 c -0.07967,-0.010059 6.588308,2.7709893 5.577779,9.5916955 -0.660271,4.456588 -3.948828,6.638041 -6.724613,7.558672 -3.295885,1.09313 -7.2788032,-1.182511 -7.1416418,-1.251091"
       id="path3695"
       sodipodi:nodetypes="cssc" />
    <path
       style="fill:none;stroke:#8d8d8d;stroke-width:1px;stroke-linecap:round;stroke-linejoin:miter;stroke-opacity:1"
       d="M 8.6012479,5.3378986 10.999172,7.6836934 10.947043,6.1198302"
       id="path3697"
       sodipodi:nodetypes="ccc" />
  </g>
  <g
     inkscape:groupmode="layer"
     id="layer6"
     inkscape:label="Paint Stroke"
     style="display:none">
    <path
       style="fill:#936116;fill-opacity:1;stroke:#000000;stroke-width:1px;stroke-linecap:butt;stroke-linejoin:miter;stroke-opacity:1"
       d="m 3.2841128,22.175493 c 0,0 4.432332,-0.20195 6.2554534,-1.303219 1.4263678,-0.861607 2.7273828,-2.253735 3.1798548,-3.85753 0.271568,-0.962579 0.185065,-2.172722 -0.41703,-2.97134 -0.721171,-0.95656 -2.101889,-1.653101 -3.2841129,-1.459606 -1.4199822,0.23241 -2.6096397,1.598144 -3.1798552,2.919211 -0.5233875,1.212577 0.5374878,2.733496 0.052129,3.961788 -0.46066,1.165787 -2.6064388,2.658567 -2.6064388,2.710696 z"
       id="path2895"
       sodipodi:nodetypes="caaaaaac" />
    <path
       style="fill:#c4c4c4;fill-opacity:1;stroke:#000000;stroke-width:1px;stroke-linecap:butt;stroke-linejoin:miter;stroke-opacity:1"
       d="m 10.373626,11.958253 1.980895,1.459605 2.97134,-1.720249 -4.639462,-2.5543099 -0.312773,2.8149539 z"
       id="path2897"
       sodipodi:nodetypes="ccccc" />
    <path
       style="fill:#4a3506;fill-opacity:1;stroke:#000000;stroke-width:1px;stroke-linecap:butt;stroke-linejoin:miter;stroke-opacity:1"
       d="m 11.520459,6.4326028 c -0.712282,0.5039403 -0.97527,1.9526516 -0.677674,2.6064387 l 4.378818,2.6585665 c 1.036526,0.105458 2.25311,-0.589078 2.55431,-1.563863 L 11.520459,6.4326028 z"
       id="path2899"
       sodipodi:nodetypes="ccccc" />
    <path
       style="fill:#d3d946;fill-opacity:1;stroke:#000000;stroke-width:1px;stroke-linecap:butt;stroke-linejoin:miter;stroke-opacity:1"
       d="m 16.733337,1.0633391 c -0.364901,0.2085151 -5.10862,5.2128774 -5.10862,5.2128774 l 6.151197,3.9096575 2.450051,-6.6203538"
       id="path2901"
       sodipodi:nodetypes="cccc" />
    <path
       style="fill:none;stroke:#000000;stroke-width:0.5;stroke-linecap:butt;stroke-linejoin:miter;stroke-miterlimit:4;stroke-opacity:1;stroke-dasharray:none"
       d="m 7.1416422,18.734993 c 0.056987,-1.614684 -0.4229159,-3.26095 1.8766359,-4.743718"
       id="path3675"
       sodipodi:nodetypes="cc" />
    <path
       style="fill:none;stroke:#000000;stroke-width:0.5;stroke-linecap:butt;stroke-linejoin:miter;stroke-miterlimit:4;stroke-opacity:1;stroke-dasharray:none"
       d="M 7.8193163,20.350985 C 9.0596357,19.832136 10.13656,18.823102 10.686399,16.232812"
       id="path3677"
       sodipodi:nodetypes="cc" />
  </g>
  <g
     inkscape:groupmode="layer"
     id="layer7"
     inkscape:label="Paint Layout"
     style="display:none">
    <rect
       style="fill:url(#linearGradient3675);fill-opacity:1;stroke:#000000;stroke-opacity:1"
       id="rect3667"
       width="22"
       height="22"
       x="1"
       y="1" />
    <path
       style="fill:none;stroke:#000000;stroke-width:1px;stroke-linecap:butt;stroke-linejoin:miter;stroke-opacity:1"
       d="M 7,7 17,17"
       id="path3649" />
    <rect
       style="fill:#ffffff;fill-opacity:1;stroke:#000000;stroke-width:1;stroke-linecap:square;stroke-linejoin:miter;stroke-miterlimit:4;stroke-opacity:1;stroke-dasharray:none;stroke-dashoffset:0"
       id="rect2853"
       width="5"
       height="5"
       x="4"
       y="4" />
    <rect
       style="fill:#ffffff;fill-opacity:1;stroke:#000000;stroke-width:1;stroke-linecap:square;stroke-linejoin:miter;stroke-miterlimit:4;stroke-opacity:1;stroke-dasharray:none;stroke-dashoffset:0;display:inline"
       id="rect2853-1"
       width="5"
       height="5"
       x="15"
       y="15" />
  </g>
  <g
     inkscape:groupmode="layer"
     id="layer8"
     inkscape:label="Pencil Line"
     style="display:none">
    <path
       style="fill:#d64185;fill-opacity:1;stroke:#000000;stroke-width:1px;stroke-linecap:round;stroke-linejoin:round;stroke-opacity:1"
       d="m 19,10 4,-4 -5,-5 -4,4 5,5"
       id="path4242"
       sodipodi:nodetypes="ccccc" />
    <path
       style="fill:#d0ce32;fill-opacity:1;stroke:#000000;stroke-width:1px;stroke-linecap:butt;stroke-linejoin:round;stroke-opacity:1"
       d="M 14,5 3,16 8,21 19,10 14,5 z"
       id="path4250"
       sodipodi:nodetypes="ccccc" />
    <path
       style="fill:none;stroke:#000000;stroke-width:0.5;stroke-linecap:round;stroke-linejoin:miter;stroke-miterlimit:4;stroke-opacity:1;stroke-dasharray:none"
       d="M 8,16 16,8"
       id="path4246"
       sodipodi:nodetypes="cc" />
    <path
       style="fill:#878787;fill-opacity:1;stroke:#000000;stroke-width:0.5;stroke-linecap:butt;stroke-linejoin:miter;stroke-miterlimit:4;stroke-opacity:1;stroke-dasharray:none"
       d="m 13,6 5,5 1,-1 -5,-5 -1,1 z"
       id="path4248"
       sodipodi:nodetypes="ccccc" />
    <path
       style="fill:#b0a973;fill-opacity:1;stroke:#000000;stroke-width:1px;stroke-linecap:butt;stroke-linejoin:miter;stroke-opacity:1"
       d="M 1,23 8,21 8,19 6,18 5,16 3,16 1,23 z"
       id="path4252"
       sodipodi:nodetypes="ccccccc" />
    <path
       style="fill:#000000;fill-opacity:1;stroke:none"
       d="m 1,23 1,-4 3,3 -4,1 z"
       id="path4254"
       sodipodi:nodetypes="cccc" />
  </g>
  <g
     inkscape:groupmode="layer"
     id="layer9"
     inkscape:label="Pen"
     style="display:none">
    <path
       style="fill:#cdae44;fill-opacity:1;stroke:#000000;stroke-width:1px;stroke-linecap:butt;stroke-linejoin:round;stroke-opacity:1"
       d="m 10,12 4,0 c 0,0 1.860647,-1.592669 2,-3 C 16.118427,7.8039986 15,6 15,6 L 15,2 9,2 9,6 c 0,0 -1.1184275,1.8039986 -1,3 0.1393532,1.407331 2,3 2,3 z"
       id="path4257"
       sodipodi:nodetypes="ccsccccsc" />
    <path
       style="fill:#132847;fill-opacity:1;stroke:#000000;stroke-width:1px;stroke-linecap:round;stroke-linejoin:round;stroke-opacity:1"
       d="m 10,23 c 0,0 -1.6605416,-3.237334 -2,-5 -0.1891075,-0.981956 -0.2897841,-2.042908 0,-3 0.3482772,-1.150281 2,-3 2,-3 l 4,0 c 0,0 1.651723,1.849719 2,3 0.289784,0.957092 0.189108,2.018044 0,3 -0.339458,1.762666 -2,5 -2,5"
       id="path4259"
       sodipodi:nodetypes="cssccssc" />
    <path
       style="fill:none;stroke:#000000;stroke-width:1;stroke-linecap:round;stroke-linejoin:miter;stroke-miterlimit:4;stroke-opacity:1;stroke-dasharray:none"
       d="m 12,2 0,5"
       id="path4261"
       sodipodi:nodetypes="cc" />
    <path
       style="fill:none;stroke:#eee3b6;stroke-width:1px;stroke-linecap:round;stroke-linejoin:round;stroke-opacity:1"
       d="m 11.781103,11.072064 -1.459606,-0.05213 c 0,0 -1.2285359,-1.372851 -1.2510898,-2.1894085 -0.027178,-0.9839557 1.0425758,-2.762825 1.0425758,-2.762825 l -0.104258,-3.023469"
       id="path4263"
       sodipodi:nodetypes="ccscc" />
    <path
       style="fill:none;stroke:#4f63c8;stroke-width:1px;stroke-linecap:round;stroke-linejoin:round;stroke-opacity:1"
       d="m 10.842785,22.74891 c 0,0 -1.3359226,-2.460844 -1.668121,-3.805401 C 8.8821739,17.759669 8.6088515,16.47513 8.9140201,15.294495 9.1371524,14.431242 10.373626,13.052957 10.373626,13.052957"
       id="path4265"
       sodipodi:nodetypes="cssc" />
  </g>
  <g
     inkscape:groupmode="layer"
     id="layer10"
     inkscape:label="Flood Paint"
     style="display:none">
    <path
       style="fill:#ffff00;stroke:#000000;stroke-width:0.5;stroke-linecap:round;stroke-linejoin:round;stroke-miterlimit:4;stroke-opacity:1;stroke-dasharray:none"
       d="m 19,11 0,11 c 0,0 -0.564479,-0.819601 -1,-1 -0.61592,-0.255122 -1.38408,-0.255122 -2,0 -0.435521,0.180399 -0.564479,0.819601 -1,1 -0.61592,0.255122 -1.38408,-0.255122 -2,0 -0.435521,0.180399 -1,1 -1,1 l 11,0 0,-1 c 0,0 -0.528595,-1 -1,-1 -0.471405,0 -1,1 -1,1 l 0,-11 -2,0"
       id="path3660"
       sodipodi:nodetypes="ccaaaacccaccc" />
    <rect
       style="fill:url(#linearGradient3682);fill-opacity:1;stroke:#000000;stroke-width:1;stroke-linecap:round;stroke-linejoin:round;stroke-miterlimit:4;stroke-opacity:1;stroke-dasharray:none;stroke-dashoffset:0"
       id="rect2884"
       width="12"
       height="15"
       x="8.2907848"
       y="-10.90297"
       transform="matrix(0.55191539,0.83390011,-0.83390011,0.55191539,0,0)" />
    <path
       style="fill:#ffff00;stroke:#000000;stroke-width:0.5;stroke-linecap:round;stroke-linejoin:round;stroke-miterlimit:4;stroke-opacity:1;stroke-dasharray:none"
       d="M 20.290785,10.902971 13.6678,0.89616918 12,2 c 0,0 -0.141443,1.5981631 0.269931,2.2197156 0.411373,0.6215524 1.394558,0.6054739 1.937731,1.1158848 0.242913,0.2282626 0.541555,0.500728 0.551915,0.8339001 0.02317,0.7449963 -1.13905,1.1927346 -1.115885,1.9377309 0.01036,0.3331722 0.275575,0.6474951 0.551916,0.8339001 0.78161,0.5272326 2.445833,-0.3207594 2.771631,0.5639694 0.364252,0.9891571 -1.507911,1.5326411 -1.949785,2.4896461 -0.197613,0.427986 -0.371921,0.92307 -0.281985,1.385816 0.06359,0.32721 0.551915,0.8339 0.551915,0.8339 l 5.003401,-3.311492 z"
       id="path2886"
       sodipodi:nodetypes="cccaaaaaaaacc" />
    <path
       style="fill:none;stroke:#000000;stroke-width:0.5;stroke-linecap:round;stroke-linejoin:miter;stroke-miterlimit:4;stroke-opacity:1;stroke-dasharray:none"
       d="m 9.9672978,6.1979346 c 0,0 -7.8672585,-4.0094688 -7.2736661,-4.8175559 0.5737069,-0.78101614 6.5215146,2.2392426 6.5215146,2.2392426"
       id="path3684"
       sodipodi:nodetypes="czc" />
  </g>
  <g
     inkscape:groupmode="layer"
     id="layer11"
     inkscape:label="Text"
     style="display:none">
    <text
       xml:space="preserve"
       style="font-size:18px;font-style:normal;font-weight:normal;line-height:125%;letter-spacing:0px;word-spacing:0px;fill:#000000;fill-opacity:1;stroke:none;font-family:Bitstream Vera Sans"
       x="0"
       y="18"
       id="text2891"
       sodipodi:linespacing="125%"><tspan
         sodipodi:role="line"
         id="tspan2893"
         x="0"
         y="18"
         style="font-size:18px;font-family:serif;-inkscape-font-specification:serif"
         dx="0 -2.8466752">Tx</tspan></text>
    <path
       style="fill:none;stroke:#000000;stroke-width:1px;stroke-linecap:butt;stroke-linejoin:miter;stroke-opacity:1"
       d="M 19,3 18.857666,20.080055"
       id="path2898" />
    <path
       style="fill:none;stroke:#000000;stroke-width:1px;stroke-linecap:butt;stroke-linejoin:miter;stroke-opacity:1"
       d="m 15,3 3,0"
       id="path2900"
       sodipodi:nodetypes="cc" />
    <path
       style="fill:none;stroke:#000000;stroke-width:1px;stroke-linecap:butt;stroke-linejoin:miter;stroke-opacity:1"
       d="m 15,20 3,0"
       id="path2902"
       sodipodi:nodetypes="cc" />
    <path
       style="fill:none;stroke:#000000;stroke-width:1px;stroke-linecap:butt;stroke-linejoin:miter;stroke-opacity:1;display:inline"
       d="M 19.87232,2.952555 23,3"
       id="path2900-1"
       sodipodi:nodetypes="cc" />
    <path
       style="fill:none;stroke:#000000;stroke-width:1px;stroke-linecap:butt;stroke-linejoin:miter;stroke-opacity:1;display:inline"
       d="M 19.87232,19.952555 23,20"
       id="path2900-4"
       sodipodi:nodetypes="cc" />
  </g>
  <g
     inkscape:groupmode="layer"
     id="layer12"
     inkscape:label="Color Sample">
    <path
       style="fill:url(#linearGradient3693);stroke:#000000;stroke-width:1px;stroke-linecap:butt;stroke-linejoin:miter;stroke-opacity:1;fill-opacity:1"
       d="M 14,7 3,18 3,20 2,21 3,22 4,21 6,21 17,10 14,7 z"
       id="path2903"
       sodipodi:nodetypes="ccccccccc" />
    <path
       style="fill:#6a5935;stroke:#000000;stroke-width:1px;stroke-linecap:butt;stroke-linejoin:miter;stroke-opacity:1;fill-opacity:1"
       d="m 12,5 7,7 3,-3 -7,-7 -3,3 z"
       id="path2905"
       sodipodi:nodetypes="ccccc" />
    <path
       style="fill:#6a5935;stroke:#000000;stroke-width:1px;stroke-linecap:butt;stroke-linejoin:miter;stroke-opacity:1;fill-opacity:1"
       d="M 16.985166,4.0258241 19,2 c 2.280083,-0.5467674 3.741337,-0.104116 3,3 L 20,7 16.985166,4.0258241 z"
       id="path2909"
       sodipodi:nodetypes="ccccc" />
    <path
       style="fill:#f4f1ea;stroke:none;stroke-width:1px;stroke-linecap:butt;stroke-linejoin:miter;stroke-opacity:1;fill-opacity:1"
       d="M 13.379377,4.9747161 14.945048,3.4564889 17.791724,5.923608 15.087382,4.8798269 13.379377,4.9747161 z"
       id="path3683" />
    <path
       style="fill:#f4f1ea;stroke:none;stroke-width:1px;stroke-linecap:butt;stroke-linejoin:miter;stroke-opacity:1;fill-opacity:1"
       d="m 18.123837,3.9783795 1.186115,-1.3284488 2.182451,0.3321122 -1.850339,0.6167798 -1.518227,0.3795568 z"
       id="path3685" />
  </g>
</svg>
